<svg xmlns="http://www.w3.org/2000/svg" width="30" height="37" viewBox="0 0 30 37">
    <g fill="none" fill-rule="evenodd" stroke-linecap="round" stroke-linejoin="round">
        <path stroke="#ff308b" d="M15.426 36.063A.144.144 0 0 0 15.64 36c.429-1.003 2.715-6.283 3.43-6.283 1.165 0 3.46 1.172 5.245 1.172 1.785 0 1.45-4.15 2.008-5.845.558-1.693.907-2.685.907-3.532 2.231-.225 1.827-.926 1.547-1.604-.279-.677-2.713-3.748-2.713-4.256 0-.587.583-2.388.583-3.517C26.648 7 23.733 1 13.829 1 4.124 1 1 8.184 1 12.135c0 3.951 1.105 6.907 2.332 8.205 1.227 1.298 2.331 2.487 2.331 4.689a5.61 5.61 0 0 1-1.166 3.516l10.929 7.518z"/>
        <path stroke="#51c185" d="M11.051 4.44c3.485-.699 10.377-.279 11.685 5.857.505 2.412.701 4.824-4.674 5.271-5.375.447-7.763.715-8.18 1.757-.415 1.043-.583 3.515-1.752 3.515a1.044 1.044 0 0 1-1.168-1.172c0-1.087-.584-2.343-1.169-3.514-.487-.977-3.505-9.957 5.258-11.714z"/>
        <path stroke="#51c185" d="M16.204 12.539c1.164-1.162 3.492-1.162 3.978.805a1.528 1.528 0 0 1-.99 1.945m-4.734-3.331c-1.747.58-2.23 2.475-1.165 3.485m4.605-10.567c.731 1.824.22 3.38-1.112 4.178m4.307-1.975c.383 1.953-.233 3.137-1.979 3.137M14.045 4.19a2.495 2.495 0 0 1 .995 3.122m-1.164 2.323c-.583-1.162-2.546-1.182-3.493 0M9.128 4.988c1.983.266 3.506 1.797 2.988 3.776m-2.897.29C7.473 8.582 7.5 6.598 7.617 5.732m-.144 5.064a1.49 1.49 0 0 0-2.574 0m6.066.581c-1.164 0-2.328 1.743-.582 2.904m-.866-1.653c-1.572-.237-3.778.672-3.945 2.904"/>
    </g>
</svg>
