<svg xmlns="http://www.w3.org/2000/svg" width="30" height="31" viewBox="0 0 30 31">
    <g fill="none" fill-rule="evenodd" stroke-linecap="round" stroke-linejoin="round" transform="translate(1 1)">
        <g stroke="#ff308b">
            <path d="M11.988 30v-6.92s.456-3.167 3.646-3.05c0 0-.114-2.11 2.05-3.284 2.165-1.173 3.874 1.056 3.874 1.056l.912-.821s-2.962-2.58-.114-5.395c0 0-2.62-2.463-.114-5.513l-.57-.586s-2.05 2.58-5.24 0c0 0-2.507 2.697-5.355 0 0 0-2.849 2.697-5.241-.235l-.798.821s2.735 2.932 0 5.395c0 0 2.849 2.933 0 5.396 0 0 2.507 2.228.684 4.926-1.823 2.697-8.203.469-4.557-4.81 0 0-2.62-2.697 0-5.394 0 0-2.62-2.698 0-5.513 0 0-2.051-1.994-.684-4.574s4.33-1.29 5.24-.118c0 0 2.621-2.814 5.242 0 0 0 2.734-2.814 5.355 0 0 0 2.62-2.814 5.354.118 0 0 2.051-2.58 4.672-.587 2.62 1.994 0 4.926 0 4.926s2.734 3.285-.114 5.63c0 0 2.848 2.698 0 5.396 0 0 2.62 2.697.114 5.395 0 0-2.393 1.877-4.786-.587 0 0-1.025 1.525-3.076 1.29 0 0 .798 3.285-3.19 3.871V30M6.352 19.91h9.528"/>
            <path d="M17.053 17.182H9.614s-1.145-.117-1.145-1.403c0-1.285 1.145-1.285 1.145-1.285h8.698s1.26 0 1.26-1.403-1.26-1.286-1.26-1.286H9.614s-1.145 0-1.145-1.402C8.47 9 9.614 9 9.614 9h11.56"/>
        </g>
        <circle cx="24.433" cy="14.227" r="1.856" stroke="#51c185"/>
    </g>
</svg>
