<svg xmlns="http://www.w3.org/2000/svg" width="35" height="31" viewBox="0 0 35 31">
    <g fill="none" fill-rule="evenodd" stroke-linecap="round" stroke-linejoin="round">
        <path stroke="#ff308b" d="M21.898 15.641c-1.547-.446-2.733-2.655-2.733-4.257V0m-6.03 15.643c1.55-.44 2.74-2.656 2.74-4.259V0M21.9 20.555l-2.417-2.39a2.795 2.795 0 0 0-3.922 0l-2.425 2.397"/>
        <path stroke="#51c185" d="M10.827 6.404c-4.365 0-9.82 5.17-9.82 13.719C1.007 27.256.797 30 2.644 30c2.182 0 3.136-2.908 6-3.292 2.865-.385 4.365-.559 4.365-2.744V9.148c0-1.157-.145-2.744-2.182-2.744zm13.38 0c4.364 0 9.82 5.17 9.82 13.719 0 7.133.21 9.877-1.637 9.877-2.182 0-3.136-2.908-6-3.292-2.865-.385-4.365-.559-4.365-2.744V9.148c0-1.157.145-2.744 2.182-2.744z"/>
    </g>
</svg>
