<svg xmlns="http://www.w3.org/2000/svg" width="36" height="30" viewBox="0 0 36 30">
    <g fill="none" fill-rule="evenodd" stroke-linecap="round" stroke-linejoin="round">
        <path stroke="#ff308b" d="M23.206 11.736c.086-1.045.733-4.673 3.174-4.575 2.44.098 8.662 6.23 8.71 11.243.048 5.013-2.584 5.646-6.174 5.792-3.59.146-4.116-1.703-3.59-3.99.528-2.288-.996-2.783-1.618-4.146-.622-1.363-.588-3.279-.502-4.324zM12.885 11.736c-.085-1.045-.733-4.673-3.174-4.575-2.44.098-8.662 6.23-8.71 11.243-.048 5.013 2.584 5.646 6.174 5.792 3.59.146 4.116-1.703 3.59-3.99-.527-2.288.996-2.783 1.618-4.146.622-1.363.587-3.279.502-4.324z"/>
        <path stroke="#51c185" d="M12.932 19.098s.17 1.016 1.547 1.016 2.203-1.209 2.203-3.24V0M19.41 18.41s.177 1.022 1.83 1.022c1.651 0 1.92-1.023 1.92-1.023"/>
        <path stroke="#ff308b" d="M12.932 22.16s2.194 1.923 2.037 7.84M23.5 22.16s-2.251 2.885-2.03 7.84"/>
    </g>
</svg>
