<svg xmlns="http://www.w3.org/2000/svg" width="31" height="32" viewBox="0 0 31 32">
    <g fill="none" fill-rule="evenodd">
        <g stroke="#ff308b">
            <path d="M14.08 30.74c-.825-.287-1.629-.825-1.629-1.829l.392-9.55c.399.158.813.277 1.236.355v11.025zM16.727 30.732V19.697a6.65 6.65 0 0 0 1.23-.355l.393 9.538c0 1.012-.8 1.554-1.623 1.852z"/>
            <path d="M28.79 19.39a.859.859 0 0 0 .21-.137l-.101-.072a.863.863 0 0 0-.11.209zm.948.337a3.673 3.673 0 0 1-2.57 3.272c-.954.22-1.75-.248-2.223-1.243-.502-1.082-.022-2.018.78-2.698.79-.678 1.857-.984 2.574-.679a1.606 1.606 0 0 0-.333-.897c-.341-.458-.94-.827-1.875-1.055-.85-.208-1.251-1.046-1.641-2.674-.047-.195-.022-.082-.168-.733l-.112-.5c-.254-1.111-.446-1.498-.68-1.53-.852-.097-1.59 1.178-2.027 4.024-.276 1.983-2.88 3.1-5.93 3.1-3.037 0-5.64-1.116-5.942-3.092-.443-2.865-1.174-4.134-2.025-4.038-.293.035-.484.492-.792 2.02-.458 2.27-.81 3.18-1.812 3.418-1.15.281-1.785.763-2.06 1.356a1.668 1.668 0 0 0-.153.598c.714-.308 1.768-.006 2.576.675.8.679 1.28 1.618.784 2.699-.47 1.019-1.29 1.498-2.267 1.232-1.407-.464-2.393-1.737-2.5-3.262a3.203 3.203 0 0 1-.47-2.529c.303-.942 1.185-1.635 2.576-2.096.791-.263 1.107-1.043 1.4-3.027.407-2.747.937-3.71 2.689-3.71 1.861 0 2.652.515 3.426 1.851l.125.217c.987 1.754 1.848 2.337 4.623 2.337 2.44 0 3.394-.576 4.158-1.948.056-.1.091-.165.198-.367.801-1.563 1.51-2.1 3.483-2.1 1.757 0 2.29.966 2.689 3.71l.052.346c.26 1.697.587 2.428 1.348 2.681 1.419.47 2.27 1.146 2.578 2.106l.005.018c.192.66.081 1.339-.21 1.988a2.717 2.717 0 0 1-.026.057l.065.032-.313.44z"/>
            <path d="M9.34 4.192L7.288 3.023c-.444-.25-.484-.716-.254-1.122a.862.862 0 0 1 1.171-.325l1.58.887C10.646.987 12.607.5 15.544.5c2.93 0 4.897.49 5.761 1.963l1.58-.887a.858.858 0 1 1 .845 1.497l-2 1.121c-.007 3.466-2.606 6.449-6.205 6.449-3.603 0-6.202-2.992-6.186-6.451z"/>
        </g>
        <path stroke="#51c185" d="M10.545 13.121c.103 1.62.608 2.53 1.516 2.727M2.984 19.93c-.077.704.159 1.215.708 1.534.824.48 1.33-.348.987-1.119-.342-.771-1.055-1.088-1.49-.684l-.146.194-.059.076z"/>
    </g>
</svg>
