<svg xmlns="http://www.w3.org/2000/svg" width="27" height="32" viewBox="0 0 27 32">
    <g fill="none" fill-rule="evenodd" transform="translate(1 1)">
        <g stroke="#ff308b">
            <path d="M6.365 27.672L.35 17.915a1.988 1.988 0 0 1-.116-1.548A2.02 2.02 0 0 1 1.268 15.2c1-.474 2.2-.072 2.702.905l2.293 3.621"/>
            <path d="M6.323 19.7L4.806 3c0-1.105.906-2 2.023-2s2.023.895 2.023 2l1.517 10V2c0-1.105.906-2 2.023-2s2.023.895 2.023 2v12l1.011-10c0-1.105.906-2 2.023-2s2.023.895 2.023 2l-1.011 11 2.528-6c.455-1 .91-2 2.023-2s2.276.95 2.023 2l-2.529 9.5-1.298 6.5c0 2.761-2.265 5-5.058 5h-5.427a5.121 5.121 0 0 1-4.35-2.4"/>
        </g>
        <circle cx="21" cy="16.5" r="1" stroke="#51c185"/>
        <circle cx="9.3" cy="26.4" r="1.2" stroke="#51c185"/>
    </g>
</svg>
