<svg xmlns="http://www.w3.org/2000/svg" width="31" height="28" viewBox="0 0 31 28">
    <g fill="none" fill-rule="evenodd" transform="translate(1)">
        <circle cx="21.663" cy="21.074" r="2.358" stroke="#51c185" stroke-linecap="round" stroke-linejoin="round"/>
        <g stroke="#ff308b">
            <path d="M13.679.147s.488 3.311 2.89 5.332m-6.73-4.04c.434 2.8 3.074 7.848 5.112 9.46"/>
            <path d="M6.429 27.352c-1.441-1.578-2.706-6.376-.501-6.508 2.204-.132 2.078 5.927 8.518 6.508 6.44.581 14.95-3.614 15.034-12.516.084-8.901-5.512-11.013-8.52-11.013-3.98 0-6.436 3.69-6.012 8.01.423 4.318.968 6.508-2.506 6.508-3.474 0-3.207-2.503-6.514-2.503-3.308 0-8.229 3.968-4.01 12.015"/>
        </g>
    </g>
</svg>
