<svg xmlns="http://www.w3.org/2000/svg" xmlns:xlink="http://www.w3.org/1999/xlink" width="18" height="32" viewBox="0 0 18 32">
    <defs>
        <path id="a" d="M0 .089h17.93v31.91H0z"/>
    </defs>
    <g fill="none" fill-rule="evenodd">
        <g transform="matrix(-1 0 0 1 18 0)">
            <mask id="b" fill="#fff">
                <use xlink:href="#a"/>
            </mask>
            <path fill="#ff308b" d="M.81 23.57A5.542 5.542 0 0 0 0 26.464v.01a5.52 5.52 0 0 0 .429 2.128 5.582 5.582 0 0 0 1.961 2.423c.863.599 1.906.958 3.026.974h.08a5.445 5.445 0 0 0 3.469-1.24A5.445 5.445 0 0 0 12.433 32h.08a5.413 5.413 0 0 0 2.108-.46 5.558 5.558 0 0 0 3.309-5.066v-.01a5.543 5.543 0 0 0-2.923-4.893 3.486 3.486 0 0 1-1.352-1.294 3.55 3.55 0 0 1-.497-1.815v-3.181a.532.532 0 0 0-.53-.534c-.293 0-.53.239-.53.534v3.181c0 .847.23 1.662.648 2.363a4.548 4.548 0 0 0 1.764 1.69 4.473 4.473 0 0 1 2.36 3.949v.01-.002a4.444 4.444 0 0 1-.346 1.715 4.516 4.516 0 0 1-1.586 1.959 4.377 4.377 0 0 1-2.44.786h-.065a4.393 4.393 0 0 1-3.098-1.27.527.527 0 0 0-.74 0 4.392 4.392 0 0 1-3.098 1.27H5.43a4.36 4.36 0 0 1-1.697-.37 4.499 4.499 0 0 1-1.925-1.623 4.452 4.452 0 0 1-.749-2.467v-.008a4.467 4.467 0 0 1 2.36-3.95 4.547 4.547 0 0 0 1.764-1.69 4.622 4.622 0 0 0 .648-2.362V7.31c.204.03.436.058.701.082.612.055 1.402.09 2.432.09s1.82-.035 2.431-.09c.266-.024.498-.052.702-.082v8.476c0 .295.237.534.53.534.292 0 .53-.239.53-.534V7.044a1.68 1.68 0 0 0 .271-.146.987.987 0 0 0 .142-.118.783.783 0 0 0 .088-.106l.004-.007a.698.698 0 0 0 .042-.07l.02-.042a.609.609 0 0 0 .051-.241V6.31v-.055a9.73 9.73 0 0 0-.006-.339l-.001-.045c-.037-.96-.209-1.811-.487-2.548a5.646 5.646 0 0 0-1.124-1.855A4.28 4.28 0 0 0 10.702.444a4.41 4.41 0 0 0-3.474 0 4.28 4.28 0 0 0-1.456 1.025 5.644 5.644 0 0 0-1.124 1.855c-.279.737-.45 1.587-.487 2.548a8.162 8.162 0 0 0-.007.439c0 .032.002.066.008.101v.004l.004.018.005.019.009.03.01.035.009.02c.006.015.011.03.018.044l.014.024.02.038.002.003a.721.721 0 0 0 .155.179 1.364 1.364 0 0 0 .365.218v11.418a3.55 3.55 0 0 1-.498 1.815c-.32.538-.782.99-1.352 1.294A5.536 5.536 0 0 0 .81 23.57M6.547 2.197c.31-.334.684-.594 1.096-.77.252-.109.518-.185.792-.228v.09c0 .294.237.533.53.533.293 0 .53-.239.53-.534v-.09c.274.044.54.12.792.228.412.177.786.437 1.096.771.362.39.675.89.909 1.507.232.617.384 1.352.418 2.21l.004.159c-.027.01-.06.023-.1.035a.523.523 0 0 0-.24.064c-.24.056-.588.112-1.072.156a26.42 26.42 0 0 1-2.337.086c-1.005 0-1.766-.035-2.337-.086a8.235 8.235 0 0 1-1.072-.156.523.523 0 0 0-.24-.064 1.658 1.658 0 0 1-.1-.035c0-.053.002-.106.004-.159.033-.858.185-1.593.418-2.21a4.574 4.574 0 0 1 .909-1.507" mask="url(#b)"/>
        </g>
        <path stroke="#51c185" stroke-linecap="round" stroke-linejoin="round" d="M11.25 28c0 .947.755 1.714 1.688 1.714.931 0 1.687-.767 1.687-1.714s-.756-1.714-1.688-1.714c-.932 0-1.687.767-1.687 1.714z"/>
        <path stroke="#51c185" stroke-linecap="round" stroke-linejoin="round" stroke-width=".5" d="M5.625 28.571c0 .632.504 1.143 1.125 1.143s1.125-.511 1.125-1.143c0-.63-.504-1.142-1.125-1.142s-1.125.511-1.125 1.142z"/>
    </g>
</svg>
