<svg xmlns="http://www.w3.org/2000/svg" width="32" height="26" viewBox="0 0 32 26">
    <g fill="none" fill-rule="evenodd" stroke-linecap="round" stroke-linejoin="round">
        <path stroke="#ff308b" d="M1 1.36s.812 2.562 2.64 4.406c1.828 1.845.406 3.177 1.219 6.148.812 2.971 2.538 4.61 4.874 5.533 2.335.922 3.35 1.23 3.757 3.894.406 2.664.812 4.508.812 4.508M30.628 1.36s-.812 2.562-2.64 4.406c-1.828 1.845-.406 3.177-1.219 6.148-.812 2.971-2.538 4.61-4.874 5.533-2.335.922-3.35 1.23-3.757 3.894a77.543 77.543 0 0 1-.812 4.508"/>
        <path stroke="#51c185" d="M8.558 6.198S11.46 4.08 15.562 4.08c4.102 0 6.903 2.117 6.903 2.117"/>
        <path stroke="#ff308b" d="M3.419.151S3.93 1.85 5.467 3.346c1.536 1.498 2.253 1.099 3.79.5 1.536-.6 3.584-1.598 6.76-1.598 3.174 0 5.12.699 7.066 1.698 1.946.998 2.868.1 3.79-.8.922-.898 1.639-2.995 1.639-2.995"/>
    </g>
</svg>
