<svg xmlns="http://www.w3.org/2000/svg" width="26" height="31" viewBox="0 0 26 31">
    <g fill="none" fill-rule="evenodd" transform="translate(1)">
        <path stroke="#ff308b" d="M17.113 16.732C14.893 10.57 9.181 3.333 9.181 3.333S2.585 11.69.769 18.09a9.187 9.187 0 0 0-.442 2.178c0 .222-.045.444-.045.666a8.996 8.996 0 0 0 2.573 6.39A8.925 8.925 0 0 0 9.18 30a8.922 8.922 0 0 0 5.758-2.184M23.77 6.927a3.754 3.754 0 0 0-.182-.89C22.863 3.417 20.161 0 20.161 0s-2.703 3.418-3.446 6.036a3.754 3.754 0 0 0-.182.891c0 .091-.018.182-.018.273-.01.977.37 1.918 1.054 2.614a3.659 3.659 0 0 0 2.592 1.095c.971-.01 1.9-.406 2.58-1.101A3.678 3.678 0 0 0 23.787 7.2c0-.09 0-.182-.018-.273z"/>
        <circle cx="17.121" cy="22.424" r="5.758" stroke="#ff308b"/>
        <ellipse cx="1.667" cy="1.389" stroke="#51c185" rx="1.667" ry="1.389" transform="translate(18.03 20.303)"/>
        <ellipse cx="1.667" cy="1.389" stroke="#51c185" rx="1.667" ry="1.389" transform="translate(13.182 19.697)"/>
        <ellipse cx="1.667" cy="1.389" stroke="#51c185" rx="1.667" ry="1.389" transform="translate(15.303 23.94)"/>
    </g>
</svg>
