<svg xmlns="http://www.w3.org/2000/svg" width="27" height="27" viewBox="0 0 27 27">
    <g fill="none" fill-rule="evenodd" stroke-linecap="round" stroke-linejoin="round" transform="translate(1 1)">
        <g stroke="#ff308b">
            <path d="M5.457 9.128l8.233-2.71s.962 2.277 2.993 1.518c2.032-.759 2.032-3.469.107-4.336 0 0 .962-1.843-.428-3.035-1.39-1.193-4.17-.542-3.635 2.385L4.388 5.55s-.748-2.06-2.78-1.409c-2.031.65-2.138 3.035-.32 4.228 0 0-1.07 2.276.855 3.36 1.924 1.084 3.742-.542 3.314-2.602zM11.258 17.533l7.707 4.027s-.938 2.262 1.028 3.194c1.966.931 3.887-.941 3.15-2.92 0 0 1.982-.584 1.85-2.404-.13-1.82-2.545-3.362-4.245-.957l-7.705-4.178s.934-1.96-.954-2.966c-1.89-1.007-3.655.565-3.223 2.691 0 0-2.366.807-1.782 2.935.584 2.129 3.014 2.308 4.174.578z"/>
        </g>
        <circle cx="21.5" cy="19.5" r="1" stroke="#51c185"/>
    </g>
</svg>
