<svg xmlns="http://www.w3.org/2000/svg" width="24" height="32" viewBox="0 0 24 32">
    <g fill="none" fill-rule="evenodd" transform="translate(1 1)">
        <circle cx="2.9" cy="19.9" r="1" stroke="#51c185"/>
        <circle cx="3.3" cy="17.3" r="1" stroke="#51c185"/>
        <circle cx="4.3" cy="18.3" r="1" fill="#51c185"/>
        <path stroke="#ff308b" d="M11.04 10.519c1.046-.901 2.167-1.351 3.362-1.351 1.793 0 4.693 1.213 4.557 8.132-.091 4.612-.686 8.203-1.786 10.771-.43.805-.349 1.376.244 1.713.89.505 1.408-.431 1.792-1.5.384-1.069 2.165-6.291 1.64-13.527-.246-1.567-.537-2.771-.875-3.612-.589-2.942-1.032-4.813-1.329-5.613l2.693-3c.4-.466.434-.926.102-1.38-.498-.681-1.17-.434-1.59 0-.28.289-.978 1.019-2.094 2.19-.983-1.42-1.878-2.374-2.687-2.858-1.212-.727-2.227.203-1.545 1.22 2.085 1.687 3.284 3.722 3.595 6.104-2.652-1.194-5.13-.745-7.433 1.347"/>
        <path stroke="#ff308b" d="M11.257 10.559c.23 1.065-.115 2.349-1.034 3.853-1.38 2.256-1.558 2.655-1.857 4.281-.299 1.626-1.383 4.382-3.954 4.546-2.571.163-4.287-2.315-4.287-3.484 0-1.17.078-2.346 2.387-5.129 2.308-2.783 5.653-6.527 7.314-5.429 1.107.732 1.584 1.186 1.43 1.362z"/>
    </g>
</svg>
