<svg xmlns="http://www.w3.org/2000/svg" width="27" height="32" viewBox="0 0 27 32">
    <g fill="none" fill-rule="evenodd" stroke-linecap="round" stroke-linejoin="round">
        <path stroke="#51c185" d="M22.6 21.7h-4.963c-3.158.218-4.97 1.949-5.437 5.192-.133 1.04-.133 2.408 0 4.108"/>
        <path stroke="#ff308b" d="M7.297 30.875v-6.196c-3.411-2.52-5.464-6.176-6.157-10.968C.1 6.522 4.956 1 12.76 1c7.803 0 10.694 4.643 10.694 8.016 0 3.374-1.346 3.344.53 6.345 1.09 1.538 1.923 1.982 1.507 2.877-.417.894-2.201-.043-2.037.855.164.898 1.223 1.171.53 1.793-.462.415-.962.654-1.5.715 1.172.443 1.672 1.067 1.5 1.871-.258 1.207-.43 1.1-.215 2.304.215 1.204-.75 2.344-5.577.623V31l-10.895-.125z"/>
    </g>
</svg>
