<svg xmlns="http://www.w3.org/2000/svg" width="36" height="25" viewBox="0 0 36 25">
    <g fill="none" fill-rule="evenodd" stroke-linecap="round" stroke-linejoin="round">
        <path stroke="#ff308b" d="M1.004 8.14c.094 2.23 1.227 14.116 7.022 15.086 5.795.97 13.849-6.694 14.242-9.168.393-2.473 1.031-9.41-1.768-11.205-2.8-1.794-5.848-1.503-8.695-1.455C8.96 1.446.807 3.484 1.004 8.14zM23.763 16.524s5.234-6.149 8.484-6.341c3.25-.193 3.203-3.234.848-4.778-2.356-1.545-5.982-2.606-9.798-2.317 0 0 1.79 1.4 1.65 5.357-.142 3.957-.99 6.95-1.226 8.3-.235 1.352-1.036 5.647 5.276 5.55"/>
        <path stroke="#51c185" d="M22 2.027L24.027 0M18.824 16.121s-1.723-.9-4.883 2.2S7 20.121 7 20.121M21 19s.368 5.538 7.77 5.035"/>
    </g>
</svg>
