<svg xmlns="http://www.w3.org/2000/svg" width="27" height="23" viewBox="0 0 27 23">
    <g fill="none" fill-rule="evenodd">
        <path fill="#ff308b" fill-rule="nonzero" d="M26.868 1.756c-.082-.112-.242-.245-.54-.245a1.54 1.54 0 0 0-.688.19c-.283.16-.6.352-.936.554-2.18 1.31-5.726 3.442-11.541 4.575C10.816 3.36 8.66.135 8.638.103a.231.231 0 0 0-.385.256c.022.032 2.11 3.157 4.415 6.564-.28.05-.565.1-.855.145l-.156.024C9.404 3.807 6.836.153 6.81.116a.232.232 0 0 0-.379.265c.026.037 2.496 3.551 4.715 6.783l-.214.03c-.427.057-.89.12-1.37.2-.757-2.646-2.223-2.927-2.286-2.938a.231.231 0 0 0-.143.022c-.054.027-1.323.675-2.794 1.903C2.976 7.52 1.188 9.385.406 11.818c-.74 2.302-.468 4.706.806 7.145C2.3 21.046 3.94 22.34 6.085 22.806a8.946 8.946 0 0 0 1.9.194c1.788 0 3.53-.46 4.817-.914 2.012-.71 3.507-1.606 3.824-1.853a.23.23 0 0 0 .087-.152 4 4 0 0 0-.194-1.652c-.263-.766-.895-1.736-2.408-2.104a3.704 3.704 0 0 0 .007-1.598l-.014-.067c-.098-.451-.231-1.069.03-1.449.142-.206.39-.334.76-.391l.092-.014c1.505 2.433 2.523 4.297 3.026 5.541a.231.231 0 0 0 .429-.173c-.501-1.24-1.497-3.07-2.96-5.445.342-.057.678-.125 1.01-.202 1.578 2.276 2.675 3.802 3.262 4.535a.23.23 0 0 0 .361-.289c-.568-.709-1.626-2.178-3.145-4.367 1.234-.33 2.398-.8 3.476-1.407 3.134-1.766 5.303-4.518 6.446-8.181.152-.487.145-.835-.023-1.062zm-10.604 18.17c-.874.603-5.877 3.343-10.08 2.429-2.006-.436-3.54-1.65-4.562-3.605C.408 16.424.146 14.14.846 11.96c.746-2.324 2.467-4.12 3.78-5.218a16.66 16.66 0 0 1 2.64-1.813c.265.086 1.25.535 1.838 2.545-1.532.287-3.163.776-4.291 1.84-1.021.963-2.028 2.9-1.974 5.054.042 1.726.772 3.241 2.109 4.383a5.666 5.666 0 0 0 3.725 1.373c1.786 0 3.547-.805 4.596-2.1.318-.393.557-.816.713-1.257 2.324.554 2.315 2.673 2.282 3.158zM26.45 2.68c-.12.382-.25.749-.389 1.102h-.838a.231.231 0 1 0 0 .462h.647c-2.711 6.268-8.445 7.752-10.918 8.1l-.13.019c-.494.077-.854.274-1.07.586-.373.544-.215 1.274-.1 1.807l.014.066c.278 1.292-.258 2.296-.756 2.911-.964 1.19-2.587 1.93-4.237 1.93A5.21 5.21 0 0 1 5.248 18.4c-.987-.843-1.615-1.907-1.848-3.113h2.148a.231.231 0 1 0 0-.461H3.332a6.221 6.221 0 0 1 .02-1.423h1.472a.231.231 0 1 0 0-.462H3.429c.287-1.422 1.007-2.637 1.701-3.291 1.493-1.408 4.02-1.75 5.865-2 .318-.043.618-.084.89-.127C18.6 6.464 22.57 4.076 24.943 2.65c.334-.2.649-.39.927-.549a1.08 1.08 0 0 1 .459-.128c.084 0 .14.019.168.056.026.036.1.187-.046.652z"/>
        <path fill="#ff308b" d="M7.176 13.981c.972-.832.815-2.72.814-2.739-.015-.164-.083-.27-.154-.236-.07.033-.116.194-.102.358.005.057.107 1.398-.648 2.044-.068.058-.103.234-.078.392.02.123.07.2.123.2.015 0 .03-.006.045-.019z"/>
        <path fill="#51c185" d="M10.916 16.03c-.093-.049-.227-.036-.298.026-.463.407-.983.627-1.548.656-.929.047-1.697-.44-1.709-.449a.292.292 0 0 0-.3.003c-.083.056-.08.147.003.202.035.022.83.532 1.877.532a2.98 2.98 0 0 0 2.016-.771c.07-.063.053-.152-.041-.2zM11.818 11.155c-.033-.129-.124-.19-.203-.135-.079.053-.116.2-.083.33.006.021.56 2.23-.454 3.18-.075.07-.1.223-.057.344.028.08.08.126.134.126.026 0 .053-.01.077-.034.52-.487.786-1.308.767-2.375a6.842 6.842 0 0 0-.181-1.436zM22.553 7.073c-.03.028-3.051 2.866-6.34 3.445-.142.025-.235.152-.208.284a.257.257 0 0 0 .256.198.278.278 0 0 0 .049-.004c3.448-.607 6.488-3.462 6.615-3.583.101-.096.1-.25-.003-.344a.275.275 0 0 0-.37.004z"/>
    </g>
</svg>
