<svg xmlns="http://www.w3.org/2000/svg" width="30" height="26" viewBox="0 0 30 26">
    <g fill="none" fill-rule="evenodd">
        <g stroke="#ff308b">
            <path d="M.129 24.597L5.06 23.14s2.803-.785 2.803-3.699v-8.743M29.522 24.855l-4.932-1.458s-2.803-.784-2.803-3.698v-8.743"/>
            <path d="M2.707.145S3.28 9.92 13.352 14.302h3.205S25.485 11.38 27.202.707"/>
            <path d="M11.474 6.09s.225.274 1.128.205c.902-.068 2.369-.481 4.512 0 0 0 .902.138 1.58-.206M13.536 7.61s1.032-.58 2.063 0"/>
        </g>
        <path stroke="#51c185" d="M5.233 24.273c2.713-.601 4.07-2.08 4.07-4.438v-2.248M24.419 24.564c-2.714-.602-4.07-2.081-4.07-4.438v-2.248"/>
    </g>
</svg>
