<svg xmlns="http://www.w3.org/2000/svg" width="30" height="26" viewBox="0 0 30 26">
    <g fill="none" fill-rule="evenodd">
        <path stroke="#ff308b" d="M0 24.398l4.994-1.453s2.837-.782 2.837-3.687v-8.716M29.518 25l-4.994-1.453s-2.837-.782-2.837-3.687v-8.715"/>
        <path stroke="#ff308b" d="M2.71 0s.57 9.775 10.604 14.157h3.192S25.398 11.235 27.108.562"/>
        <path stroke="#51c185" d="M14.91 22.626s.424.567 1.424.567 1.222-1.02 1.222-1.02.445-2.382.778-4.196c.333-1.814-1.555-1.36-1.555-1.36l-1.87.68-1.868-.68s-1.89-.454-1.556 1.36c.334 1.814.778 4.195.778 4.195s.222 1.02 1.222 1.02 1.425-.566 1.425-.566z"/>
        <path stroke="#ff308b" d="M11.446 6.052s.226.322 1.13.241c.903-.08 2.371-.563 4.517 0 0 0 .904.162 1.582-.241M13.554 7.53s1.054-.678 2.109 0"/>
    </g>
</svg>
